# Blender v2.79 (sub 0) OBJ File: 'Torch.blend'
# www.blender.org
mtllib torch.mtl
o Cylinder
v 0.500000 0.876756 0.357468
v 0.500000 1.522376 0.250000
v 0.554545 0.876756 0.368318
v 0.595671 1.522376 0.269030
v 0.600785 0.876756 0.399215
v 0.676777 1.522376 0.323223
v 0.631682 0.876756 0.445455
v 0.730970 1.522376 0.404329
v 0.642532 0.876756 0.500000
v 0.750000 1.522376 0.500000
v 0.631682 0.876756 0.554545
v 0.730970 1.522376 0.595671
v 0.600785 0.876756 0.600785
v 0.676777 1.522376 0.676777
v 0.554545 0.876756 0.631682
v 0.595671 1.522376 0.730970
v 0.500000 0.876756 0.642532
v 0.500000 1.522376 0.750000
v 0.445455 0.876756 0.631682
v 0.404329 1.522376 0.730970
v 0.399215 0.876756 0.600785
v 0.323223 1.522376 0.676777
v 0.368318 0.876756 0.554545
v 0.269030 1.522376 0.595671
v 0.357468 0.876756 0.500000
v 0.250000 1.522376 0.500000
v 0.368318 0.876756 0.445455
v 0.269030 1.522376 0.404329
v 0.399215 0.876756 0.399215
v 0.323223 1.522376 0.323223
v 0.445455 0.876756 0.368318
v 0.404329 1.522376 0.269030
v 0.500000 0.148372 0.401951
v 0.537522 0.148372 0.409414
v 0.569332 0.148372 0.430669
v 0.590586 0.148372 0.462478
v 0.598049 0.148372 0.500000
v 0.590586 0.148372 0.537522
v 0.569332 0.148372 0.569331
v 0.537522 0.148372 0.590586
v 0.500000 0.148372 0.598049
v 0.462479 0.148372 0.590586
v 0.430669 0.148372 0.569331
v 0.409415 0.148372 0.537522
v 0.401951 0.148372 0.500000
v 0.409415 0.148372 0.462478
v 0.430669 0.148372 0.430669
v 0.462479 0.148372 0.409414
v 0.500000 1.522376 0.291374
v 0.579838 1.522376 0.307254
v 0.647521 1.522376 0.352479
v 0.692746 1.522376 0.420162
v 0.708626 1.522376 0.500000
v 0.692746 1.522376 0.579838
v 0.647521 1.522376 0.647521
v 0.579838 1.522376 0.692746
v 0.500000 1.522376 0.708626
v 0.420162 1.522376 0.692746
v 0.352479 1.522376 0.647521
v 0.307254 1.522376 0.579838
v 0.291374 1.522376 0.500000
v 0.307254 1.522376 0.420162
v 0.352479 1.522376 0.352479
v 0.420162 1.522376 0.307254
v 0.500000 1.468537 0.291374
v 0.579838 1.468537 0.307254
v 0.647521 1.468537 0.352479
v 0.692746 1.468537 0.420162
v 0.708626 1.468537 0.500000
v 0.692746 1.468537 0.579838
v 0.647521 1.468537 0.647521
v 0.579838 1.468537 0.692746
v 0.500000 1.468537 0.708626
v 0.420162 1.468537 0.692746
v 0.352479 1.468537 0.647521
v 0.307254 1.468537 0.579838
v 0.291374 1.468537 0.500000
v 0.307254 1.468537 0.420162
v 0.352479 1.468537 0.352479
v 0.420162 1.468537 0.307254
v 0.500000 -0.439171 0.487405
v 0.504820 -0.439171 0.488364
v 0.508906 -0.439171 0.491094
v 0.511636 -0.439171 0.495180
v 0.512595 -0.439171 0.500000
v 0.511636 -0.439171 0.504820
v 0.508906 -0.439171 0.508906
v 0.504820 -0.439171 0.511636
v 0.500000 -0.439171 0.512595
v 0.495181 -0.439171 0.511636
v 0.491095 -0.439171 0.508906
v 0.488364 -0.439171 0.504820
v 0.487406 -0.439171 0.500000
v 0.488364 -0.439171 0.495180
v 0.491095 -0.439171 0.491094
v 0.495181 -0.439171 0.488364
vt 0.703644 0.443989
vt 0.650783 0.025052
vt 0.671851 0.023857
vt 0.666691 0.446084
vt 0.629686 0.025451
vt 0.629685 0.446783
vt 0.608588 0.025052
vt 0.592680 0.446084
vt 0.587521 0.023857
vt 0.555727 0.443989
vt 0.566513 0.021868
vt 0.518879 0.440500
vt 0.545596 0.019087
vt 0.482190 0.435622
vt 0.524799 0.015518
vt 0.445711 0.429362
vt 0.504151 0.011167
vt 0.409494 0.421729
vt 0.483682 0.006039
vt 0.373591 0.412734
vt 0.463422 0.000141
vt 0.921317 0.402391
vt 0.775689 0.006039
vt 0.795949 0.000141
vt 0.885779 0.412734
vt 0.755220 0.011167
vt 0.849877 0.421729
vt 0.734572 0.015518
vt 0.813660 0.429362
vt 0.713775 0.019087
vt 0.426121 0.661848
vt 0.395874 0.630597
vt 0.429787 0.644040
vt 0.777181 0.435622
vt 0.692858 0.021868
vt 0.740491 0.440500
vt 0.126753 0.999858
vt 0.147860 0.000143
vt 0.147855 0.999858
vt 0.168961 0.000143
vt 0.147860 0.000143
vt 0.168961 0.000143
vt 0.021243 0.999857
vt 0.042354 0.000142
vt 0.042345 0.999857
vt 0.253364 0.999858
vt 0.274467 0.000143
vt 0.274465 0.999858
vt 0.168956 0.999858
vt 0.190063 0.000143
vt 0.190058 0.999858
vt 0.063447 0.999857
vt 0.084556 0.000142
vt 0.084549 0.999857
vt 0.295567 0.999858
vt 0.316670 0.000144
vt 0.316669 0.999858
vt 0.105651 0.999858
vt 0.126759 0.000143
vt 0.000141 0.999857
vt 0.021253 0.000142
vt 0.232262 0.999858
vt 0.253366 0.000143
vt 0.063455 0.000142
vt 0.211164 0.000143
vt 0.211160 0.999858
vt 0.295569 0.000143
vt 0.105658 0.000143
vt 0.337771 0.999858
vt 0.337771 0.000144
vt 0.232265 0.000143
vt 0.540744 0.571144
vt 0.519980 0.539802
vt 0.540761 0.535190
vt 0.541443 0.614972
vt 0.558373 0.574977
vt 0.470184 0.447066
vt 0.430138 0.465055
vt 0.426930 0.447224
vt 0.338054 0.575782
vt 0.369830 0.605448
vt 0.354870 0.615437
vt 0.469734 0.661832
vt 0.500492 0.630089
vt 0.510254 0.645471
vt 0.541366 0.492271
vt 0.500482 0.477661
vt 0.510268 0.462635
vt 0.355366 0.493181
vt 0.355699 0.536625
vt 0.338195 0.532739
vt 0.558373 0.531792
vt 0.396219 0.478636
vt 0.386654 0.463271
vt 0.385831 0.645635
vt 0.526595 0.604545
vt 0.466678 0.464768
vt 0.466483 0.643886
vt 0.355663 0.572437
vt 0.526555 0.502321
vt 0.369996 0.503676
vt 0.376436 0.567791
vt 0.509344 0.514815
vt 0.387252 0.592924
vt 0.489447 0.496022
vt 0.407255 0.612194
vt 0.463201 0.486304
vt 0.461931 0.622415
vt 0.433475 0.622485
vt 0.434664 0.486468
vt 0.488295 0.611985
vt 0.408190 0.496849
vt 0.508535 0.592548
vt 0.387747 0.515767
vt 0.519609 0.567076
vt 0.376587 0.540639
vt 0.338054 0.402390
vt 0.000152 0.000141
vt 0.000152 0.000141
vt 0.021253 0.000142
vt 0.190063 0.000143
vt 0.042354 0.000142
vt 0.211164 0.000143
vt 0.232265 0.000143
vt 0.063455 0.000142
vt 0.253366 0.000143
vt 0.084556 0.000142
vt 0.274467 0.000143
vt 0.105658 0.000143
vt 0.295569 0.000143
vt 0.126759 0.000143
vt 0.316670 0.000144
vt 0.656666 0.530155
vt 0.581652 0.545076
vt 0.566731 0.470063
vt 0.641745 0.455142
vt 0.656666 0.470063
vt 0.664741 0.489558
vt 0.664741 0.510660
vt 0.641745 0.545076
vt 0.622249 0.553151
vt 0.601148 0.553151
vt 0.566731 0.530155
vt 0.558656 0.510660
vt 0.558656 0.489558
vt 0.581652 0.455142
vt 0.601148 0.447066
vt 0.622249 0.447066
vt 0.337771 0.000144
vn 0.1925 -0.1611 -0.9680
vn 0.5483 -0.1611 -0.8206
vn 0.8206 -0.1611 -0.5483
vn 0.9680 -0.1611 -0.1925
vn 0.9680 -0.1611 0.1925
vn 0.8206 -0.1611 0.5483
vn 0.5483 -0.1611 0.8206
vn 0.1925 -0.1611 0.9680
vn -0.1925 -0.1611 0.9680
vn -0.5483 -0.1611 0.8206
vn -0.8206 -0.1611 0.5483
vn -0.9680 -0.1611 0.1925
vn -0.9680 -0.1611 -0.1925
vn -0.8206 -0.1611 -0.5483
vn 0.0000 1.0000 0.0000
vn -0.5483 -0.1611 -0.8206
vn -0.1925 -0.1611 -0.9680
vn 0.9790 -0.0598 -0.1947
vn 0.8231 -0.1412 -0.5500
vn -0.1947 -0.0598 0.9790
vn -0.8300 -0.0598 -0.5546
vn 0.5546 -0.0598 -0.8300
vn 0.5546 -0.0598 0.8300
vn -0.9790 -0.0598 0.1947
vn 0.9790 -0.0598 0.1947
vn -0.5546 -0.0598 0.8300
vn -0.5546 -0.0598 -0.8300
vn 0.8300 -0.0598 -0.5546
vn 0.1947 -0.0598 0.9790
vn 0.1947 -0.0598 -0.9790
vn -0.9790 -0.0598 -0.1947
vn 0.8300 -0.0598 0.5546
vn -0.8300 -0.0598 0.5546
vn -0.1947 -0.0598 -0.9790
vn -0.9808 0.0000 -0.1951
vn 0.9808 0.0000 0.1951
vn -0.8315 0.0000 -0.5556
vn 0.8315 0.0000 0.5556
vn -0.5556 0.0000 -0.8315
vn 0.5556 0.0000 0.8315
vn -0.1951 0.0000 -0.9808
vn -0.1951 0.0000 0.9808
vn 0.1951 0.0000 0.9808
vn 0.1951 0.0000 -0.9808
vn -0.5556 0.0000 0.8315
vn 0.5556 0.0000 -0.8315
vn -0.8315 0.0000 0.5556
vn 0.8315 0.0000 -0.5556
vn -0.9808 0.0000 0.1951
vn 0.9808 0.0000 -0.1951
vn -0.5500 -0.1412 0.8231
vn 0.5500 -0.1412 -0.8231
vn -0.1931 -0.1412 0.9710
vn -0.1931 -0.1412 -0.9710
vn 0.1931 -0.1412 -0.9710
vn 0.1931 -0.1412 0.9710
vn -0.5500 -0.1412 -0.8231
vn 0.5500 -0.1412 0.8231
vn -0.8231 -0.1412 -0.5500
vn 0.8231 -0.1412 0.5500
vn -0.9710 -0.1412 -0.1931
vn 0.9710 -0.1412 0.1931
vn -0.9710 -0.1412 0.1931
vn 0.0000 -1.0000 0.0000
vn -0.8231 -0.1412 0.5500
vn 0.9710 -0.1412 -0.1931
usemtl torch
s off
f 2/1/1 3/2/1 1/3/1
f 4/4/2 5/5/2 3/2/2
f 6/6/3 7/7/3 5/5/3
f 8/8/4 9/9/4 7/7/4
f 10/10/5 11/11/5 9/9/5
f 12/12/6 13/13/6 11/11/6
f 14/14/7 15/15/7 13/13/7
f 16/16/8 17/17/8 15/15/8
f 18/18/9 19/19/9 17/17/9
f 20/20/10 21/21/10 19/19/10
f 22/22/11 23/23/11 21/24/11
f 24/25/12 25/26/12 23/23/12
f 26/27/13 27/28/13 25/26/13
f 28/29/14 29/30/14 27/28/14
f 2/31/15 64/32/15 49/33/15
f 30/34/16 31/35/16 29/30/16
f 32/36/17 1/3/17 31/35/17
f 9/37/18 36/38/18 7/39/18
f 35/40/19 36/38/19 84/41/19 83/42/19
f 19/43/20 41/44/20 17/45/20
f 29/46/21 46/47/21 27/48/21
f 5/49/22 34/50/22 3/51/22
f 15/52/23 39/53/23 13/54/23
f 25/55/24 44/56/24 23/57/24
f 11/58/25 37/59/25 9/37/25
f 21/60/26 42/61/26 19/43/26
f 31/62/27 47/63/27 29/46/27
f 7/39/28 35/40/28 5/49/28
f 17/45/29 40/64/29 15/52/29
f 3/51/30 33/65/30 1/66/30
f 27/48/31 45/67/31 25/55/31
f 13/54/32 38/68/32 11/58/32
f 21/69/33 44/56/33 43/70/33
f 1/66/34 48/71/34 31/62/34
f 53/72/35 70/73/35 54/74/35
f 8/75/15 53/72/15 10/76/15
f 18/77/15 58/78/15 20/79/15
f 28/80/15 63/81/15 30/82/15
f 4/83/15 51/84/15 6/85/15
f 14/86/15 56/87/15 16/88/15
f 24/89/15 61/90/15 26/91/15
f 10/76/15 54/74/15 12/92/15
f 20/79/15 59/93/15 22/94/15
f 30/82/15 64/32/15 32/95/15
f 6/85/15 52/96/15 8/75/15
f 16/88/15 57/97/15 18/77/15
f 4/83/15 49/33/15 50/98/15
f 28/80/15 61/90/15 62/99/15
f 12/92/15 55/100/15 14/86/15
f 22/94/15 60/101/15 24/89/15
f 61/90/36 78/102/36 62/99/36
f 54/74/37 71/103/37 55/100/37
f 62/99/38 79/104/38 63/81/38
f 55/100/39 72/105/39 56/87/39
f 63/81/40 80/106/40 64/32/40
f 56/87/41 73/107/41 57/97/41
f 49/33/42 66/108/42 50/98/42
f 64/32/43 65/109/43 49/33/43
f 57/97/44 74/110/44 58/78/44
f 50/98/45 67/111/45 51/84/45
f 58/78/46 75/112/46 59/93/46
f 51/84/47 68/113/47 52/96/47
f 59/93/48 76/114/48 60/101/48
f 52/96/49 69/115/49 53/72/49
f 60/101/50 77/116/50 61/90/50
f 2/1/1 4/4/1 3/2/1
f 4/4/2 6/6/2 5/5/2
f 6/6/3 8/8/3 7/7/3
f 8/8/4 10/10/4 9/9/4
f 10/10/5 12/12/5 11/11/5
f 12/12/6 14/14/6 13/13/6
f 14/14/7 16/16/7 15/15/7
f 16/16/8 18/18/8 17/17/8
f 18/18/9 20/20/9 19/19/9
f 20/20/10 22/117/10 21/21/10
f 22/22/11 24/25/11 23/23/11
f 24/25/12 26/27/12 25/26/12
f 26/27/13 28/29/13 27/28/13
f 28/29/14 30/34/14 29/30/14
f 2/31/15 32/95/15 64/32/15
f 30/34/16 32/36/16 31/35/16
f 32/36/17 2/1/17 1/3/17
f 9/37/18 37/59/18 36/38/18
f 42/61/51 43/118/51 91/119/51 90/120/51
f 34/50/52 35/40/52 83/42/52 82/121/52
f 41/44/53 42/61/53 90/120/53 89/122/53
f 48/71/54 33/65/54 81/123/54 96/124/54
f 33/65/55 34/50/55 82/121/55 81/123/55
f 40/64/56 41/44/56 89/122/56 88/125/56
f 47/63/57 48/71/57 96/124/57 95/126/57
f 39/53/58 40/64/58 88/125/58 87/127/58
f 46/47/59 47/63/59 95/126/59 94/128/59
f 38/68/60 39/53/60 87/127/60 86/129/60
f 45/67/61 46/47/61 94/128/61 93/130/61
f 37/59/62 38/68/62 86/129/62 85/131/62
f 44/56/63 45/67/63 93/130/63 92/132/63
f 19/43/20 42/61/20 41/44/20
f 29/46/21 47/63/21 46/47/21
f 5/49/22 35/40/22 34/50/22
f 15/52/23 40/64/23 39/53/23
f 25/55/24 45/67/24 44/56/24
f 11/58/25 38/68/25 37/59/25
f 21/60/26 43/118/26 42/61/26
f 31/62/27 48/71/27 47/63/27
f 7/39/28 36/38/28 35/40/28
f 17/45/29 41/44/29 40/64/29
f 3/51/30 34/50/30 33/65/30
f 27/48/31 46/47/31 45/67/31
f 13/54/32 39/53/32 38/68/32
f 21/69/33 23/57/33 44/56/33
f 1/66/34 33/65/34 48/71/34
f 53/72/35 69/115/35 70/73/35
f 8/75/15 52/96/15 53/72/15
f 18/77/15 57/97/15 58/78/15
f 28/80/15 62/99/15 63/81/15
f 4/83/15 50/98/15 51/84/15
f 14/86/15 55/100/15 56/87/15
f 24/89/15 60/101/15 61/90/15
f 10/76/15 53/72/15 54/74/15
f 20/79/15 58/78/15 59/93/15
f 30/82/15 63/81/15 64/32/15
f 6/85/15 51/84/15 52/96/15
f 16/88/15 56/87/15 57/97/15
f 4/83/15 2/31/15 49/33/15
f 28/80/15 26/91/15 61/90/15
f 12/92/15 54/74/15 55/100/15
f 22/94/15 59/93/15 60/101/15
f 61/90/36 77/116/36 78/102/36
f 54/74/37 70/73/37 71/103/37
f 62/99/38 78/102/38 79/104/38
f 55/100/39 71/103/39 72/105/39
f 63/81/40 79/104/40 80/106/40
f 56/87/41 72/105/41 73/107/41
f 49/33/42 65/109/42 66/108/42
f 64/32/43 80/106/43 65/109/43
f 57/97/44 73/107/44 74/110/44
f 50/98/45 66/108/45 67/111/45
f 58/78/46 74/110/46 75/112/46
f 51/84/47 67/111/47 68/113/47
f 59/93/48 75/112/48 76/114/48
f 52/96/49 68/113/49 69/115/49
f 60/101/50 76/114/50 77/116/50
f 84/133/64 88/134/64 92/135/64
f 96/136/64 81/137/64 82/138/64
f 82/138/64 83/139/64 84/133/64
f 84/133/64 85/140/64 86/141/64
f 86/141/64 87/142/64 88/134/64
f 88/134/64 89/143/64 90/144/64
f 90/144/64 91/145/64 92/135/64
f 92/135/64 93/146/64 96/136/64
f 93/146/64 94/147/64 96/136/64
f 94/147/64 95/148/64 96/136/64
f 96/136/64 82/138/64 84/133/64
f 84/133/64 86/141/64 88/134/64
f 88/134/64 90/144/64 92/135/64
f 96/136/64 84/133/64 92/135/64
f 43/70/65 44/56/65 92/132/65 91/149/65
f 36/38/66 37/59/66 85/131/66 84/41/66
usemtl flame
f 75/112/15 71/103/15 67/111/15
f 67/111/15 66/108/15 65/109/15
f 65/109/15 80/106/15 79/104/15
f 79/104/15 78/102/15 77/116/15
f 77/116/15 76/114/15 75/112/15
f 75/112/15 74/110/15 73/107/15
f 73/107/15 72/105/15 71/103/15
f 71/103/15 70/73/15 69/115/15
f 69/115/15 68/113/15 67/111/15
f 67/111/15 65/109/15 79/104/15
f 79/104/15 77/116/15 67/111/15
f 77/116/15 75/112/15 67/111/15
f 75/112/15 73/107/15 71/103/15
f 71/103/15 69/115/15 67/111/15
